<svg width="100" height="100" xmlns="http://www.w3.org/2000/svg">

 <g>
  <title>Layer 1</title>
  <path stroke="null" id="svg_1" d="m22.11191,6.69843c-2.88001,0.02607 -6.39273,1.01585 -8.98651,2.98674c-2.05674,1.56326 -3.5925,3.63992 -4.0534,6.50501c0.04018,-0.0238 0.07921,-0.0476 0.11958,-0.07102c-0.16129,0.53192 -0.25121,1.09292 -0.25121,1.67659c0,3.22757 2.64984,5.84371 5.9192,5.84371c2.7346,0 5.03643,-1.83318 5.71582,-4.32087c0.00536,-0.02172 0.01282,-0.04344 0.01798,-0.06498c0.09184,-0.39327 0.14694,-0.7635 0.17315,-1.10369c0.00478,-0.06177 0.00325,-0.12278 0.00574,-0.18285c0.00096,-0.0238 0.00574,-0.04722 0.00612,-0.07102c0.00134,-0.03438 -0.00038,-0.06668 0,-0.10011c0,-0.28825 -0.01875,-0.57347 -0.05969,-0.85001c-0.26154,-1.51452 -1.2968,-2.29615 -2.40954,-2.59158c-1.63142,-0.43313 -3.64569,0.12032 -4.54396,3.4295l-0.08954,-0.02361c-0.48252,-3.68431 1.46382,-5.61761 3.70749,-6.20411c0.47372,-0.12353 0.96676,-0.18984 1.46478,-0.18285c1.7357,0.02456 3.52898,0.92179 4.69931,3.23494c0.01665,0.03268 0.03157,0.06706 0.04783,0.10011c0.99642,2.87737 0.40369,8.18274 -0.63979,10.88501c-1.39437,3.54226 -4.28108,7.65082 -9.12369,12.37233c-11.17087,10.89105 -11.74293,24.41033 -4.86098,35.55298c6.88118,11.1419 21.45896,19.78553 41.0328,19.78553c19.57365,0 34.14569,-8.64363 41.02706,-19.78629c6.86511,-11.11583 6.31027,-24.59827 -4.78311,-35.47592l-0.07768,-0.07669l-0.00631,0c-4.84242,-4.72151 -7.7232,-8.83007 -9.11776,-12.37233c-1.00063,-3.10782 -1.73914,-8.12003 -0.50797,-10.88482c0.0111,-0.02418 0.02449,-0.04722 0.03597,-0.07102c0.00478,-0.00944 0.00708,-0.02002 0.01186,-0.02947c1.17033,-2.31315 2.96362,-3.21038 4.6995,-3.23494c0.49783,-0.00699 0.99106,0.05931 1.46478,0.18322c2.24309,0.58594 4.18427,2.51923 3.70098,6.20373l-0.0838,0.02361c-0.89808,-3.30936 -2.91234,-3.86281 -4.54396,-3.4295c-0.84374,0.22384 -1.64596,0.72723 -2.09883,1.61728c-0.0023,0.00756 -0.00325,0.01606 -0.00574,0.02361c-0.18654,0.56799 -0.28699,1.17169 -0.28699,1.8005c0,3.22776 2.64984,5.8439 5.9192,5.8439c3.26916,0 5.91901,-2.61613 5.91901,-5.8439c0,-0.82262 -0.17353,-1.60368 -0.48405,-2.31391c-0.58507,-2.50167 -2.02766,-4.36564 -3.91067,-5.79648c-2.76617,-2.10235 -6.57965,-3.09082 -9.55398,-2.98069c-2.55954,0.09445 -4.75441,0.77596 -6.3558,1.98902c-0.6528,0.49433 -1.22122,1.07705 -1.69207,1.77085c-13.28845,6.70713 -26.57306,7.31951 -39.86132,-1.4639c-0.12283,-0.10521 -0.24681,-0.20872 -0.37653,-0.30695c-1.60139,-1.21306 -3.79645,-1.89457 -6.3558,-1.98902c-0.18558,-0.00699 -0.37576,-0.00793 -0.56785,-0.00604l0.00038,0.00038zm10.09811,10.03462c1.21261,0.50018 2.42332,0.942 3.63517,1.32828l0,59.13408c-5.87979,-1.55986 -11.07501,-4.15654 -14.80354,-7.80307c-3.27165,-3.19981 -5.37182,-7.29609 -5.53043,-12.0125c-0.15842,-4.7166 1.58302,-9.95491 5.54267,-15.60708c7.9061,-11.28659 10.93668,-19.56906 11.15613,-25.0399l0,0.00019zm35.59268,0.26577c0.30612,5.47216 3.36597,13.67001 11.14465,24.77413c3.95908,5.65217 5.70071,10.89067 5.5421,15.60708c-0.15842,4.7166 -2.25897,8.8125 -5.53043,12.01231c-3.63957,3.55983 -8.68116,6.12005 -14.39086,7.69106l0,-59.0929c1.07831,-0.30336 2.15623,-0.63278 3.23453,-0.99168zm-6.8102,1.88891l0,59.03397c-1.57077,0.30789 -3.17714,0.54363 -4.80703,0.71438l0,-58.89835c1.60253,-0.21194 3.20469,-0.49678 4.80703,-0.85001zm-21.57184,0.14733c1.61669,0.37211 3.23224,0.65016 4.84893,0.83867l0,58.80957c-1.64348,-0.15867 -3.26342,-0.38723 -4.84912,-0.68473l0,-58.96314l0.00019,-0.00038zm13.18953,1.05099l0,58.8158c-0.86861,0.0374 -1.73876,0.05893 -2.61292,0.05893c-0.71938,0 -1.43608,-0.01001 -2.1524,-0.03551l0,-58.77462c1.58665,0.05931 3.17867,0.034 4.76513,-0.06479l0.00019,0.00019z" fill="#000"/>
 </g>
</svg>