<svg width="100" height="100" xmlns="http://www.w3.org/2000/svg" xml:space="preserve" version="1.1">

 <g>
  <title>Layer 1</title>
  <g stroke="null" id="svg_1">
   <path stroke="null" id="svg_2" d="m86.20851,26.8307c3.48463,-0.71286 6.78145,-2.41571 9.40891,-5.05833c1.56049,-1.5683 1.5565,-4.1065 -0.002,-5.67681c-1.56049,-1.57031 -4.09604,-1.56629 -5.65454,0.00402c-3.32079,3.3354 -8.50379,4.05831 -12.61182,1.75706c-16.05849,-8.99816 -36.12311,-6.75113 -49.85385,5.25512l-9.93041,-9.98011l9.48883,-1.68477c0.60941,-0.10844 1.06098,-0.62652 1.08495,-1.24902c0.02597,-0.62049 -0.38363,-1.17472 -0.98105,-1.33336l-22.29247,-5.84951c-0.45156,-0.12048 -0.9331,0.01205 -1.26278,0.34338c-0.33368,0.33133 -0.46355,0.81728 -0.34567,1.27111l5.82437,22.40203c0.15585,0.60242 0.70732,1.01207 1.32672,0.98797c0.6194,-0.0261 1.1349,-0.47993 1.2428,-1.09038l1.67638,-9.53432l9.93041,9.98011c-11.94846,13.79946 -14.19229,33.9665 -5.24294,50.10134c2.29179,4.13662 1.57248,9.35359 -1.75231,12.69502l-0.00599,0.00602c-1.56049,1.5683 -1.55849,4.10851 0.002,5.67681c0.77925,0.78315 1.80026,1.17472 2.82527,1.17472c1.02501,0 2.04802,-0.39157 2.82927,-1.17673c2.63346,-2.64664 4.32782,-5.96598 5.03514,-9.47608c0.03197,-0.03213 0.06594,-0.04819 0.09591,-0.07831l27.42151,-27.56076l9.89045,9.93995l-3.27683,9.87368c-0.15785,0.47591 -0.03597,1.00002 0.31769,1.35344l3.57255,3.58842c0.32369,0.32531 0.79124,0.45985 1.23281,0.35141c0.44357,-0.10442 0.80123,-0.43374 0.94709,-0.86949l2.86124,-8.62064l2.82727,2.84142l-3.27683,9.87368c-0.15785,0.47591 -0.03597,1.00002 0.31769,1.35344l3.57255,3.59043c0.32369,0.32531 0.78924,0.45784 1.23281,0.35141c0.44357,-0.10442 0.79923,-0.43374 0.94709,-0.86949l2.85924,-8.62064l3.53459,3.55027c0.58543,0.58836 1.35269,0.88154 2.11995,0.88154c0.76926,0 1.53652,-0.29318 2.12195,-0.88154c1.17087,-1.17472 1.17087,-3.0844 0,-4.25912l-3.5226,-3.54023l8.54575,-2.86351c0.43358,-0.14458 0.76126,-0.50403 0.86716,-0.95183s-0.02997,-0.91568 -0.35166,-1.23697l-3.57255,-3.59043c-0.35166,-0.35543 -0.87316,-0.47591 -1.3447,-0.31928l-9.79454,3.28319l-2.82727,-2.83941l8.54575,-2.86351c0.43558,-0.14458 0.76326,-0.50403 0.86716,-0.94982c0.1059,-0.44981 -0.02997,-0.91568 -0.34966,-1.23898l-3.57255,-3.58842c-0.35366,-0.35342 -0.87515,-0.47792 -1.3447,-0.31928l-9.79654,3.28119l-9.90244,-9.94798l27.49544,-27.64911zm-12.75368,-1.95787c0.75327,0.42169 1.53452,0.77311 2.32376,1.08235l-22.73005,22.8418l-19.90078,-20.00038c11.20318,-9.49215 27.35558,-11.18093 40.30707,-3.92377zm-47.38223,51.0351c-0.3057,-0.7952 -0.65737,-1.58236 -1.07896,-2.34342c-7.21703,-13.01229 -5.53066,-29.24955 3.91422,-40.50679l19.90078,19.99837l-22.73604,22.85184z"/>
  </g>
  <g id="svg_3"/>
  <g id="svg_4"/>
  <g id="svg_5"/>
  <g id="svg_6"/>
  <g id="svg_7"/>
  <g id="svg_8"/>
  <g id="svg_9"/>
  <g id="svg_10"/>
  <g id="svg_11"/>
  <g id="svg_12"/>
  <g id="svg_13"/>
  <g id="svg_14"/>
  <g id="svg_15"/>
  <g id="svg_16"/>
  <g id="svg_17"/>
 </g>
</svg>