<svg width="100" height="100" xmlns="http://www.w3.org/2000/svg">
 <g>
  <title>Layer 1</title>
  <path fill="#e9e9e9" d="m64.83466,-0.29069c-6.55583,21.10348 -10.19098,32.16037 -18.60733,33.34571c-3.98918,0.56194 -9.20686,-4.08904 -15.02636,-10.69637c3.31325,6.53013 4.55653,11.75452 2.3227,13.04834c-3.38115,1.95891 -10.94316,-1.47609 -22.87687,-6.55884c6.77921,4.42977 17.91919,10.67297 16.56798,12.47024c-1.72923,2.29922 -16.54056,-1.00094 -28.02794,-2.79969c19.10935,5.402 29.47232,11.81982 29.47232,17.5232c0,3.91846 -10.46127,13.2253 -15.39645,17.85097c4.18879,-2.42407 13.86469,-5.19824 16.44354,-0.63595c2.85599,5.05318 -1.40861,13.10194 -6.10392,27.23055c6.72288,-9.82433 15.71236,-22.99688 19.43275,-22.64976c2.62319,0.2446 -1.0291,12.90881 -2.24239,20.99501c4.61478,-17.03295 9.96632,-28.18193 19.30832,-27.86608c6.35344,0.21482 12.42673,6.54289 19.05924,11.07007c-3.46703,-4.21346 -9.84659,-10.20718 -8.47053,-11.32446c1.90614,-1.54756 12.09648,2.66867 20.18022,5.47176c-5.35046,-3.82041 -14.70168,-9.333 -13.20439,-10.81591c2.23104,-2.20925 15.51382,0.28331 25.16316,1.52672c-18.7928,-6.53566 -29.30869,-9.3983 -31.55408,-16.70348c-1.13147,-3.68173 2.32442,-8.57156 8.75752,-14.47126c-6.7201,3.6577 -11.69126,6.10304 -13.65073,2.6357c-2.47926,-4.38617 2.436,-14.01291 7.54702,-26.81218c-4.52654,6.90617 -10.39423,17.75717 -11.8339,16.41443c-1.92156,-1.79195 1.19894,-16.5044 2.74034,-28.2485l-0.00064,0l0.00043,-0.00021l-0.00001,-0.00001zm-65.98599,0.03297l0,4.96853c10.39166,5.83568 20.4006,13.26997 30.26968,21.86195c-7.23219,-8.86614 -14.4224,-17.82161 -20.1376,-26.83047l-10.13209,0l0.00001,-0.00001zm37.64943,0c3.9547,7.94539 7.3896,16.36891 10.38203,25.09149c-1.07236,-8.46309 -2.11988,-16.88087 -2.62661,-25.09149l-7.7552,0l-0.00021,0l-0.00001,0zm34.27236,0c-1.53776,5.67297 -3.30169,11.36572 -5.37916,17.14163c3.29933,-5.81505 6.57468,-11.59479 10.00679,-17.14163l-4.62806,0l0.00043,0zm22.51449,0c-5.97435,10.7874 -13.64923,21.24237 -22.63956,31.42657c9.96203,-8.0143 19.89665,-16.02499 30.01931,-21.98616l0,-9.44041l-7.37975,0zm7.37932,34.03526c-7.72671,3.82423 -16.02933,7.23925 -24.76587,10.18591c8.33303,-1.31232 16.6802,-2.57466 24.76587,-3.35418l0,-6.83172l0,-0.00001zm-44.17656,9.11776c2.00252,0 3.62595,1.61222 3.62595,3.60133c0,1.98869 -1.62343,3.60091 -3.62595,3.60091s-3.62595,-1.61222 -3.62595,-3.60091s1.62343,-3.60133 3.62595,-3.60133zm-11.14983,0.33988c3.32139,0 6.0144,2.67356 6.0144,5.97244c0,2.06696 -1.05759,3.88804 -2.66431,4.96044c0.77402,0.81738 1.2512,1.91467 1.2512,3.12532c0,2.52255 -2.05884,4.56739 -4.59893,4.56739s-4.59915,-2.04505 -4.59915,-4.56739c0,-1.20959 0.47718,-2.30603 1.25013,-3.1232c-1.60844,-1.07198 -2.66709,-2.89434 -2.66709,-4.96257c0,-3.29888 2.69215,-5.97244 6.01397,-5.97244l-0.00021,0l-0.00001,0.00001zm-46.4892,2.40812l0,8.19871c6.82569,-0.97499 13.80558,-1.21087 20.8887,-0.86992c-7.22341,-2.16735 -14.43674,-4.32832 -20.88827,-7.32879l-0.00043,0zm56.93141,6.03561c2.00252,0 3.62595,1.61222 3.62595,3.60133c0,1.98869 -1.62343,3.60091 -3.62595,3.60091s-3.62637,-1.61222 -3.62637,-3.60091s1.62343,-3.60133 3.62637,-3.60133zm-33.79132,6.72006c-7.74299,2.5502 -15.47184,4.3162 -23.13987,5.17122l0,10.93097c6.63807,-6.09155 14.86916,-11.11623 23.14008,-16.10156l0,-0.00043l-0.00021,-0.00021l0,0.00001zm1.25077,18.85424c-8.12207,6.53395 -16.19296,13.07684 -24.39107,18.50861l0,5.09253l6.37892,0c5.14443,-8.03132 11.21516,-15.90205 18.01193,-23.60114l0.00021,0l0.00001,0zm43.27789,2.36005c5.74133,7.03868 11.39956,14.12585 16.38593,21.24173l12.75784,0c-9.97745,-5.75932 -19.67755,-12.99985 -29.14335,-21.24173l-0.00043,0l0.00001,0zm-11.25735,2.11205c-0.68,6.43611 -1.36856,12.86798 -2.25138,19.12968l4.37769,0c-0.96592,-6.18577 -1.69282,-12.58509 -2.12588,-19.12968l-0.00043,0zm5.75375,2.8569c2.43,5.41795 4.7919,10.88567 7.00452,16.27278l5.00308,0c-4.15388,-5.08338 -8.16105,-10.55812 -12.0076,-16.27278z" id="svg_1" stroke="null"/>
 </g>

</svg>